<?xml version="1.0" encoding="UTF-8" standalone="no"?>
<!-- Created with Inkscape (http://www.inkscape.org/) -->

<svg
   width="50.395645mm"
   height="51.71574mm"
   viewBox="0 0 50.395645 51.71574"
   version="1.1"
   id="svg1"
   xml:space="preserve"
   inkscape:version="1.4.4 (dcaf3e7, 2026-05-05)"
   sodipodi:docname="innexarfield2.svg"
   xmlns:inkscape="http://www.inkscape.org/namespaces/inkscape"
   xmlns:sodipodi="http://sodipodi.sourceforge.net/DTD/sodipodi-0.dtd"
   xmlns="http://www.w3.org/2000/svg"
   xmlns:svg="http://www.w3.org/2000/svg"><sodipodi:namedview
     id="namedview1"
     pagecolor="#ffffff"
     bordercolor="#000000"
     borderopacity="0.25"
     inkscape:showpageshadow="2"
     inkscape:pageopacity="0.0"
     inkscape:pagecheckerboard="0"
     inkscape:deskcolor="#d1d1d1"
     inkscape:document-units="mm"
     inkscape:zoom="0.6236289"
     inkscape:cx="210.86258"
     inkscape:cy="622.96664"
     inkscape:window-width="1920"
     inkscape:window-height="1009"
     inkscape:window-x="-8"
     inkscape:window-y="-8"
     inkscape:window-maximized="1"
     inkscape:current-layer="g3"><inkscape:page
       x="0"
       y="0"
       width="50.395645"
       height="51.71574"
       id="page2"
       margin="0"
       bleed="0" /></sodipodi:namedview><defs
     id="defs1" /><g
     inkscape:label="Camada 1"
     inkscape:groupmode="layer"
     id="layer1"
     transform="translate(-78.481559,-113.30874)"><g
       id="g3"
       transform="matrix(0.81488986,0,0,0.79580814,20.994558,16.670043)"><g
         id="g9"
         transform="matrix(0.59339357,0,0,0.61486738,115.66802,50.294722)"
         inkscape:export-filename="D:\logos\ifavicon.svg"
         inkscape:export-xdpi="251.46696"
         inkscape:export-ydpi="251.46696"><path
           style="fill:#0e65f6"
           d="m 11.277364,220.74555 c -3.6301861,-1.3148 -5.8603564,-3.42962 -7.5796908,-7.18764 -0.8066725,-1.76318 -0.8897373,-2.3044 -0.9101071,-5.92993 -0.014943,-2.65957 -0.1672302,-4.26425 -0.4567951,-4.81331 -0.2389087,-0.45302 -2.75830688,-3.1341 -5.5986626,-5.95797 -2.8403556,-2.82386 -5.374336,-5.55023 -5.6310675,-6.0586 -0.3815198,-0.75547 -0.4667845,-3.19643 -0.4667845,-13.36311 0,-7.00783 -0.1437456,-13.22072 -0.3292268,-14.22966 -0.9066126,-4.93158 -4.7497286,-9.16842 -9.4879816,-10.46002 -5.228332,-1.42519 -10.791493,0.53485 -14.063721,4.955 -2.511843,3.39302 -2.520449,3.4562 -2.724921,20.00526 -0.195693,15.83852 -0.127813,15.27169 -2.081918,17.38509 -1.232711,1.3332 -3.923323,2.23477 -5.675156,1.90162 -2.722505,-0.51773 -4.98566,-2.69559 -5.595094,-5.38421 -0.413763,-1.82538 -0.374334,-25.7933 0.04758,-28.92277 1.248233,-9.25853 6.909009,-17.36973 15.035782,-21.54444 11.564576,-5.9407 25.8203902,-2.13462 33.2218318,8.86972 2.00168789,2.97608 2.6746738,4.32966 3.8515844,7.74672 l 0.9160848,2.65977 0.1798119,14.29626 c 0.1570175,12.48396 0.2483488,14.42423 0.7204606,15.30573 0.2973567,0.5552 1.7348044,2.17771 3.194328,3.60556 2.6013495,2.54491 2.6771245,2.59057 3.8426125,2.31525 0.653913,-0.15447 2.503911,-0.27405 4.111107,-0.26574 3.691531,0.0191 5.846213,0.94085 8.463012,3.62039 2.038717,2.0876 3.247132,4.49977 3.766368,7.5182 0.90563,5.26462 -2.314337,11.12185 -7.439403,13.53254 -2.597394,1.22174 -6.570361,1.39256 -9.310034,0.40029 z m 7.019591,-7.17717 c 2.483635,-1.28681 3.578541,-5.01892 2.25298,-7.67954 -2.085847,-4.18663 -7.403982,-4.42437 -10.020934,-0.44796 -1.0284635,1.56273 -1.0322019,4.47255 -0.0077,6.0139 1.814245,2.7296 4.944513,3.58048 7.77568,2.1136 z M -69.225746,196.688 c -1.539173,-0.58621 -2.984163,-1.95192 -3.814679,-3.60539 -0.603244,-1.20099 -0.622922,-2.08881 -0.538465,-24.29488 l 0.08766,-23.04834 0.885616,-1.37015 c 2.963774,-4.58528 9.459636,-4.1788 12.05225,0.75417 0.69574,1.32378 0.698946,1.43281 0.698946,23.77169 0,17.31924 -0.09431,22.71374 -0.413161,23.63311 -0.472035,1.36106 -2.026305,3.11035 -3.418696,3.84765 -1.371186,0.72607 -4.055495,0.87732 -5.539471,0.31214 z m -1.34331,-63.16367 c -4.082536,-1.97974 -6.255308,-6.37405 -5.212522,-10.54204 1.154398,-4.6141 4.524351,-7.28261 9.196918,-7.28261 7.585751,0 11.722283,8.80047 7.069439,15.04023 -2.472846,3.31624 -7.3985,4.55699 -11.053835,2.78442 z"
           id="path10"
           sodipodi:nodetypes="sssssssssssssssssscsssssssssssssssssscsssssssssss" /><path
           style="fill:#101f37"
           d="m -70.082027,196.07436 c -0.96287,-0.52684 -1.793232,-1.34849 -2.435145,-2.40961 l -0.974058,-1.61017 -0.102196,-21.80324 c -0.07303,-15.58085 0.0047,-22.30847 0.27223,-23.57356 0.884229,-4.18072 5.445252,-6.52703 9.248645,-4.75776 1.662945,0.77357 3.282554,2.66129 3.724173,4.34066 0.231733,0.88123 0.316207,8.60893 0.257177,23.52671 -0.08624,21.79465 -0.100721,22.23958 -0.766191,23.54433 -0.373059,0.73144 -1.292535,1.77419 -2.04328,2.31724 -1.116467,0.80759 -1.761477,1.00897 -3.54263,1.10609 -1.818483,0.0992 -2.418614,-0.0131 -3.638725,-0.68069 z m 0.391233,-62.38606 c -2.413572,-0.85365 -3.967006,-2.23612 -5.099181,-4.53798 -0.805327,-1.63733 -0.974058,-2.38353 -0.974058,-4.30768 0,-1.98833 0.146706,-2.59363 1.007266,-4.15589 2.332098,-4.23369 7.341839,-6.02289 11.674127,-4.16934 1.475558,0.63131 3.63656,2.7185 4.465411,4.3129 0.561005,1.07916 0.703923,1.9238 0.707031,4.17857 0.0034,2.48801 -0.102855,3.01195 -0.888669,4.38076 -1.131613,1.97116 -2.856552,3.43116 -5.045134,4.27024 -2.113739,0.81038 -3.615269,0.81768 -5.846793,0.0284 z"
           id="path9"
           sodipodi:nodetypes="sscscssssssssssssssssss" /></g></g></g></svg>
