<?xml version="1.0" encoding="UTF-8" standalone="no"?>
<!-- Created with Inkscape (http://www.inkscape.org/) -->

<svg
   width="183.88196mm"
   height="51.726875mm"
   viewBox="0 0 183.88196 51.726875"
   version="1.1"
   id="svg1"
   xml:space="preserve"
   xmlns:inkscape="http://www.inkscape.org/namespaces/inkscape"
   xmlns:sodipodi="http://sodipodi.sourceforge.net/DTD/sodipodi-0.dtd"
   xmlns="http://www.w3.org/2000/svg"
   xmlns:svg="http://www.w3.org/2000/svg"><sodipodi:namedview
     id="namedview1"
     pagecolor="#ffffff"
     bordercolor="#000000"
     borderopacity="0.25"
     inkscape:showpageshadow="2"
     inkscape:pageopacity="0.0"
     inkscape:pagecheckerboard="0"
     inkscape:deskcolor="#d1d1d1"
     inkscape:document-units="mm"><inkscape:page
       x="0"
       y="-2.4881299e-38"
       width="183.88196"
       height="51.726875"
       id="page2"
       margin="0"
       bleed="0" /></sodipodi:namedview><defs
     id="defs1" /><g
     inkscape:label="Camada 1"
     inkscape:groupmode="layer"
     id="layer1"
     transform="translate(-12.720632,-106.94479)"><g
       id="g3"
       transform="matrix(0.81488986,0,0,0.79580814,20.994558,16.670043)"><g
         id="g9"
         transform="matrix(0.59339357,0,0,0.61486738,34.968852,42.297869)"
         inkscape:export-filename="innexarfield.svg"
         inkscape:export-xdpi="96"
         inkscape:export-ydpi="96"><path
           style="fill:#0e65f6"
           d="m 11.277364,220.74555 c -3.6301861,-1.3148 -5.8603564,-3.42962 -7.5796908,-7.18764 -0.8066725,-1.76318 -0.8897373,-2.3044 -0.9101071,-5.92993 -0.014943,-2.65957 -0.1672302,-4.26425 -0.4567951,-4.81331 -0.2389087,-0.45302 -2.75830688,-3.1341 -5.5986626,-5.95797 -2.8403556,-2.82386 -5.374336,-5.55023 -5.6310675,-6.0586 -0.3815198,-0.75547 -0.4667845,-3.19643 -0.4667845,-13.36311 0,-7.00783 -0.1437456,-13.22072 -0.3292268,-14.22966 -0.9066126,-4.93158 -4.7497286,-9.16842 -9.4879816,-10.46002 -5.228332,-1.42519 -10.791493,0.53485 -14.063721,4.955 -2.511843,3.39302 -2.520449,3.4562 -2.724921,20.00526 -0.195693,15.83852 -0.127813,15.27169 -2.081918,17.38509 -1.232711,1.3332 -3.923323,2.23477 -5.675156,1.90162 -2.722505,-0.51773 -4.98566,-2.69559 -5.595094,-5.38421 -0.413763,-1.82538 -0.374334,-25.7933 0.04758,-28.92277 1.248233,-9.25853 6.909009,-17.36973 15.035782,-21.54444 11.564576,-5.9407 25.8203902,-2.13462 33.2218318,8.86972 2.00168789,2.97608 2.6746738,4.32966 3.8515844,7.74672 l 0.9160848,2.65977 0.1798119,14.29626 c 0.1570175,12.48396 0.2483488,14.42423 0.7204606,15.30573 0.2973567,0.5552 1.7348044,2.17771 3.194328,3.60556 2.6013495,2.54491 2.6771245,2.59057 3.8426125,2.31525 0.653913,-0.15447 2.503911,-0.27405 4.111107,-0.26574 3.691531,0.0191 5.846213,0.94085 8.463012,3.62039 2.038717,2.0876 3.247132,4.49977 3.766368,7.5182 0.90563,5.26462 -2.314337,11.12185 -7.439403,13.53254 -2.597394,1.22174 -6.570361,1.39256 -9.310034,0.40029 z m 7.019591,-7.17717 c 2.483635,-1.28681 3.578541,-5.01892 2.25298,-7.67954 -2.085847,-4.18663 -7.403982,-4.42437 -10.020934,-0.44796 -1.0284635,1.56273 -1.0322019,4.47255 -0.0077,6.0139 1.814245,2.7296 4.944513,3.58048 7.77568,2.1136 z m 217.312895,7.25146 c -2.29197,-1.1232 -3.41111,-3.04264 -3.40739,-5.84398 0.005,-3.48442 1.60728,-5.79535 4.51441,-6.50948 3.91215,-0.96101 7.17247,1.49821 7.17247,5.41012 0,1.0551 -0.15073,1.55265 -0.51358,1.69522 -0.28247,0.111 -2.32799,0.20181 -4.5456,0.20181 -3.86535,0 -4.03202,0.0285 -4.03202,0.69052 0,1.02344 1.66899,2.55044 3.08488,2.82243 0.67896,0.13043 2.05245,0.0834 3.0522,-0.10442 2.09355,-0.3934 2.30475,-0.32638 2.30475,0.73141 0,0.99967 -0.56827,1.21177 -3.73389,1.39362 -2.1005,0.12066 -2.84598,0.0274 -3.89623,-0.48725 z m 5.75474,-8.02632 c -0.22224,-2.03107 -2.68513,-3.16926 -4.71916,-2.1809 -1.15457,0.56101 -2.10132,2.14376 -1.68999,2.82526 0.14154,0.23451 1.33813,0.33047 3.3593,0.26942 3.1225,-0.0943 3.13897,-0.0993 3.04985,-0.91378 z m 17.77202,7.86643 c -3.55845,-1.92687 -4.02995,-8.54136 -0.79462,-11.14729 1.22683,-0.98816 3.75122,-1.45837 5.57842,-1.03907 0.82613,0.18958 1.61767,0.22631 1.75897,0.0816 0.14129,-0.14469 0.30056,-1.38499 0.35393,-2.75622 l 0.097,-2.49314 h 0.97405 0.97406 l 0.0866,8.73568 c 0.0764,7.70865 0.0263,8.75938 -0.42656,8.93731 -0.28223,0.1109 -0.83257,0.0557 -1.22298,-0.12267 -0.49426,-0.22581 -1.00566,-0.19316 -1.6839,0.10753 -1.57964,0.70032 -4.08775,0.56654 -5.69498,-0.30376 z m 5.0299,-1.6998 c 0.60491,-0.2588 1.25771,-0.77261 1.45066,-1.14179 0.37569,-0.7188 0.48376,-4.96043 0.14913,-5.85335 -0.58277,-1.55509 -4.34688,-2.04988 -5.80416,-0.76296 -1.44398,1.27517 -1.83188,5.05729 -0.68126,6.64235 0.55532,0.76499 2.12501,1.58172 3.04482,1.58427 0.40754,10e-4 1.2359,-0.20971 1.84081,-0.46852 z m -56.75023,1.91127 c -0.11905,-0.1219 -0.21646,-3.92818 -0.21646,-8.45839 0,-6.2237 0.099,-8.29942 0.40521,-8.49319 0.51972,-0.3289 10.78218,-0.43253 11.28557,-0.11396 0.20868,0.13207 0.33011,0.59723 0.26984,1.0337 -0.10826,0.78402 -0.1643,0.79558 -4.65518,0.95981 l -4.5456,0.16624 -0.0943,2.74289 -0.0943,2.74288 h 3.72047 c 4.09622,0 4.74763,0.13261 4.74763,0.96649 0,1.15644 -0.68614,1.36081 -4.56862,1.36081 h -3.78937 l -0.22619,2.6552 c -0.1244,1.46035 -0.13384,2.8082 -0.021,2.99521 0.43509,0.72086 -0.19018,1.66396 -1.1032,1.66396 -0.49393,0 -0.99547,-0.0997 -1.11452,-0.22165 z m 17.18898,-0.30425 c -0.10839,-0.28924 -0.19708,-2.89522 -0.19708,-5.79105 0,-2.89584 0.0887,-5.50181 0.19708,-5.79106 0.11446,-0.30542 0.57633,-0.5259 1.10167,-0.5259 0.52534,0 0.9872,0.22048 1.10166,0.5259 0.1084,0.28925 0.19708,2.89522 0.19708,5.79106 0,2.89583 -0.0887,5.50181 -0.19708,5.79105 -0.11446,0.30542 -0.57632,0.5259 -1.10166,0.5259 -0.52534,0 -0.98721,-0.22048 -1.10167,-0.5259 z m 24.34535,-0.0559 c -0.29093,-0.95381 -0.11342,-16.15862 0.19601,-16.7898 0.32894,-0.67099 1.25351,-0.76383 1.82088,-0.18286 0.28159,0.28834 0.38962,2.63156 0.38962,8.45082 0,4.42853 -0.0887,8.28852 -0.19708,8.57776 -0.27608,0.7367 -1.98082,0.69355 -2.20943,-0.0559 z m -68.31561,-6.98845 -6.92132,-0.0897 0.10291,-0.74152 0.10292,-0.74151 h 11.36401 c 11.14755,0 11.36401,0.0127 11.36401,0.66494 0,0.62537 -0.27057,0.67484 -4.5456,0.83118 -2.50009,0.0914 -7.6602,0.12589 -11.46693,0.0766 z m 98.11913,-0.55935 c -0.0995,-0.26554 -0.0863,-0.63957 0.0294,-0.83118 0.13997,-0.2319 3.92766,-0.34839 11.32785,-0.34839 11.23911,0 12.09262,0.088 11.67436,1.20416 -0.26311,0.70209 -22.76824,0.67806 -23.03156,-0.0246 z m -54.00643,-7.31199 c -0.21415,-0.26423 -0.34162,-0.82527 -0.28327,-1.24677 0.0877,-0.6335 0.30311,-0.76636 1.2425,-0.76636 0.9582,0 1.15396,0.12741 1.24841,0.81255 0.18302,1.32777 -1.40472,2.19123 -2.20764,1.20058 z M -69.225746,196.688 c -1.539173,-0.58621 -2.984163,-1.95192 -3.814679,-3.60539 -0.603244,-1.20099 -0.622922,-2.08881 -0.538465,-24.29488 l 0.08766,-23.04834 0.885616,-1.37015 c 2.963774,-4.58528 9.459636,-4.1788 12.05225,0.75417 0.69574,1.32378 0.698946,1.43281 0.698946,23.77169 0,17.31924 -0.09431,22.71374 -0.413161,23.63311 -0.472035,1.36106 -2.026305,3.11035 -3.418696,3.84765 -1.371186,0.72607 -4.055495,0.87732 -5.539471,0.31214 z m 243.274366,-3.87912 c -4.83828,-0.52565 -8.29322,-2.17297 -11.12411,-5.30399 -3.14382,-3.47712 -4.44837,-7.57481 -4.49572,-14.12143 -0.0862,-11.92288 6.71395,-19.10555 18.08821,-19.10555 8.94639,0 15.0662,4.48408 16.88186,12.3696 0.51866,2.25258 0.65217,8.11832 0.20136,8.84675 -0.22366,0.3614 -2.75932,0.46535 -13.06364,0.53555 -16.55966,0.11282 -14.89656,-0.0114 -14.89656,1.11252 0,0.51307 0.30583,1.86019 0.67963,2.99361 0.79395,2.4074 2.62735,4.53942 4.84516,5.63435 3.3159,1.63705 9.1206,1.76499 16.18805,0.3568 3.60712,-0.71872 3.70314,-0.72126 4.13975,-0.10985 0.56082,0.78536 0.58903,4.16401 0.0411,4.92536 -0.49105,0.68235 -3.81548,1.37052 -9.01003,1.86511 -4.12046,0.39233 -4.87377,0.39243 -8.47507,0.001 z m 12.72745,-22.66701 c 0.22057,-2.9138 -0.84506,-5.74004 -2.8434,-7.54123 -1.93464,-1.74377 -4.64181,-2.48931 -8.28543,-2.28176 -3.3503,0.19084 -5.61657,1.13696 -7.35845,3.07198 -1.33921,1.48771 -2.64877,4.54394 -2.64877,6.18166 v 0.98494 h 10.55229 c 8.2086,0 10.55928,-0.0923 10.58376,-0.41559 z m 65.55511,22.80073 c -6.08354,-0.4444 -10.03212,-2.50254 -11.95306,-6.23036 -0.79325,-1.53938 -0.87204,-2.02272 -0.87204,-5.34947 0,-3.11912 0.10344,-3.85284 0.70303,-4.98706 1.58785,-3.00363 4.70379,-5.03443 9.25566,-6.03233 1.90924,-0.41856 3.74961,-0.48733 9.31405,-0.34806 l 6.93467,0.17357 -0.12448,-2.25581 c -0.37879,-6.86432 -6.1638,-8.93939 -19.03853,-6.82909 -4.23281,0.69381 -4.34678,0.62272 -4.2166,-2.63019 l 0.0944,-2.35813 1.16728,-0.39049 c 0.64201,-0.21477 3.19891,-0.64411 5.68201,-0.95408 12.60989,-1.57411 20.32024,1.39471 22.51445,8.66906 0.58732,1.94712 0.66311,3.1499 0.69728,11.0664 0.0413,9.56444 -0.0872,10.6147 -1.59721,13.05277 -1.82821,2.95191 -5.52775,4.65884 -11.44506,5.28063 -3.18621,0.33481 -4.01575,0.3491 -7.11583,0.12264 z m 10.09518,-6.6397 c 0.82006,-0.38523 1.84282,-1.20551 2.27281,-1.82286 0.69262,-0.99441 0.79416,-1.5457 0.8902,-4.83329 l 0.1084,-3.71085 -2.05797,-0.22568 c -1.13188,-0.12412 -4.46811,-0.17477 -7.41384,-0.11256 -4.94912,0.10451 -5.47788,0.17623 -6.96242,0.94428 -2.08978,1.08118 -2.85166,2.1926 -3.01037,4.39146 -0.2052,2.84281 1.05199,4.6615 3.98633,5.76675 0.9485,0.35726 2.49915,0.45894 5.98791,0.39264 3.9785,-0.0756 4.93897,-0.19799 6.19895,-0.78989 z m -209.765652,5.22211 c -0.223008,-0.42669 -0.33611,-8.92679 -0.33611,-25.26016 v -24.61706 l 0.810728,-0.54395 c 0.98062,-0.65793 4.971621,-0.54636 5.80551,0.1623 0.477323,0.40564 0.526854,2.75897 0.526854,25.03176 0,16.31059 -0.113113,24.80044 -0.336109,25.22711 -0.293779,0.56209 -0.701259,0.64308 -3.235437,0.64308 -2.534177,0 -2.941657,-0.081 -3.235436,-0.64308 z m 17.21636,0.16834 c -0.286421,-0.35339 -0.357427,-3.85896 -0.277789,-13.71444 0.10438,-12.91754 0.125184,-13.28619 0.854968,-15.1503 1.674484,-4.27718 5.517638,-7.03527 11.215794,-8.04917 7.606212,-1.3534 15.156169,0.0961 18.994199,3.64669 1.65245,1.52868 3.13487,4.61999 3.58852,7.48318 0.49848,3.14614 0.46128,25.3431 -0.0433,25.85982 -0.24417,0.25002 -1.45926,0.39896 -3.25489,0.39896 -2.803253,0 -2.872383,-0.0191 -3.193529,-0.88407 -0.203285,-0.5475 -0.302379,-5.26233 -0.260293,-12.38455 0.06019,-10.18674 0.0031,-11.6994 -0.500145,-13.24172 -1.145386,-3.5106 -4.399016,-5.21213 -9.934562,-5.19541 -5.124708,0.0155 -8.20638,1.32005 -9.74058,4.1235 l -0.811715,1.48326 -0.09602,12.61816 c -0.06379,8.3825 -0.213375,12.76296 -0.445614,13.0495 -0.510236,0.62954 -5.578839,0.59344 -6.095,-0.0434 z m 44.852182,0.0758 c -0.58745,-0.60153 -0.54114,-25.08967 0.0517,-27.36239 1.28677,-4.93263 4.28078,-7.74538 9.94859,-9.34631 1.62648,-0.45942 3.3018,-0.59518 7.30543,-0.59199 4.77091,0.004 5.41128,0.0776 7.84468,0.90354 1.63585,0.55527 3.39533,1.46147 4.59838,2.36834 1.61527,1.2176 2.14678,1.8851 3.1066,3.90144 0.64312,1.35102 1.30426,3.39332 1.48704,4.59357 0.44237,2.90487 0.44058,24.44268 -0.002,25.28968 -0.2908,0.55639 -0.69567,0.64239 -3.00335,0.63799 -1.46698,-0.003 -2.83594,-0.11502 -3.04213,-0.24938 -0.26794,-0.17459 -0.41648,-3.75398 -0.52063,-12.5457 -0.0924,-7.79482 -0.27966,-12.72771 -0.51132,-13.46506 -1.27702,-4.06475 -6.39959,-6.22982 -12.6891,-5.36309 -4.2997,0.59252 -6.41585,1.98542 -7.49236,4.93162 -0.60972,1.66871 -0.65269,2.57992 -0.65269,13.84253 0,8.93378 -0.10091,12.15957 -0.38962,12.45521 -0.52356,0.53611 -5.5156,0.53611 -6.03916,0 z m 84.34216,-0.11365 c -0.50389,-0.6217 -0.87605,-0.0756 7.08145,-10.39166 3.44728,-4.46905 5.90257,-7.9387 5.80398,-8.20178 -0.094,-0.25079 -2.84648,-3.84261 -6.11666,-7.98183 -7.38721,-9.35033 -6.93605,-8.69683 -6.43273,-9.31783 0.46222,-0.5703 5.24235,-0.71647 6.56689,-0.20081 0.42156,0.16412 2.86752,3.07589 5.44908,6.48679 2.57629,3.40395 4.82856,6.13972 5.00504,6.07948 0.17649,-0.0602 2.19651,-2.56786 4.48895,-5.5725 5.79933,-7.60102 5.20011,-7.10231 8.70137,-7.24185 3.03542,-0.12098 4.09737,0.22223 3.72901,1.20516 -0.0996,0.26587 -3.04728,4.13537 -6.55033,8.5989 l -6.36917,8.11549 1.57861,2.07004 c 0.86823,1.13852 3.95534,5.10682 6.86024,8.81845 2.90489,3.71162 5.28162,6.86095 5.28162,6.99852 0,0.7634 -0.98044,1.04804 -3.60992,1.04804 -1.55688,0 -3.06891,-0.0936 -3.36007,-0.20801 -0.29116,-0.11441 -2.79417,-3.18146 -5.56224,-6.81566 -2.76807,-3.63421 -5.15372,-6.60765 -5.30145,-6.60765 -0.14772,0 -1.99498,2.28158 -4.10501,5.07019 -2.11003,2.7886 -4.4771,5.85565 -5.26015,6.81566 l -1.42374,1.74547 h -3.01965 c -2.32443,0 -3.11531,-0.11802 -3.43512,-0.51261 z m 83.84519,0.11365 c -0.52938,-0.54208 -0.55119,-25.0538 -0.0246,-27.59538 1.42188,-6.86206 7.36181,-10.28376 16.96607,-9.77332 1.94416,0.10333 3.73796,0.36276 3.99016,0.57708 0.33772,0.287 0.43347,1.05319 0.36424,2.91447 l -0.0939,2.52511 -4.88125,0.16623 c -4.41926,0.1505 -5.03385,0.2466 -6.49372,1.01533 -1.15919,0.61041 -1.84065,1.26463 -2.42419,2.3273 l -0.81171,1.4782 -0.099,12.95432 c -0.0653,8.54816 -0.21689,13.09977 -0.44561,13.38197 -0.45832,0.56548 -5.49893,0.5894 -6.04651,0.0287 z M -70.569056,133.52433 c -4.082536,-1.97974 -6.255308,-6.37405 -5.212522,-10.54204 1.154398,-4.6141 4.524351,-7.28261 9.196918,-7.28261 7.585751,0 11.722283,8.80047 7.069439,15.04023 -2.472846,3.31624 -7.3985,4.55699 -11.053835,2.78442 z"
           id="path10" /><path
           style="fill:#101f37"
           d="m -70.082027,196.07436 c -0.96287,-0.52684 -1.793232,-1.34849 -2.435145,-2.40961 l -0.974058,-1.61017 -0.102196,-21.80324 c -0.07303,-15.58085 0.0047,-22.30847 0.27223,-23.57356 0.884229,-4.18072 5.445252,-6.52703 9.248645,-4.75776 1.662945,0.77357 3.282554,2.66129 3.724173,4.34066 0.231733,0.88123 0.316207,8.60893 0.257177,23.52671 -0.08624,21.79465 -0.100721,22.23958 -0.766191,23.54433 -0.373059,0.73144 -1.292535,1.77419 -2.04328,2.31724 -1.116467,0.80759 -1.761477,1.00897 -3.54263,1.10609 -1.818483,0.0992 -2.418614,-0.0131 -3.638725,-0.68069 z m 242.995697,-3.57282 c -6.88607,-1.0339 -11.82842,-5.4488 -13.58612,-12.1362 -0.84855,-3.22841 -1.01418,-8.50502 -0.37066,-11.80872 0.78804,-4.04568 2.06066,-6.62782 4.48587,-9.10177 3.42461,-3.49344 7.09322,-4.85603 13.07424,-4.85603 8.92364,0 14.35434,3.71257 16.53538,11.30402 0.70477,2.45307 1.04931,8.27853 0.54652,9.24053 l -0.3797,0.72648 -13.87076,0.0867 -13.87077,0.0867 0.0356,1.23044 c 0.0584,2.01897 1.37835,5.12627 2.79266,6.5745 0.7075,0.72447 2.11387,1.73203 3.12528,2.23904 1.69212,0.84825 2.20176,0.93137 6.38451,1.04127 3.39241,0.0891 5.32813,-0.0305 7.63012,-0.47155 1.69649,-0.32504 3.74201,-0.60192 4.54561,-0.61527 l 1.46108,-0.0243 v 2.49209 2.49208 l -1.2367,0.41488 c -3.36867,1.13008 -12.9857,1.73323 -17.30218,1.08514 z m 13.93754,-23.84609 c -0.0995,-3.69113 -2.34433,-6.78447 -5.77832,-7.96237 -2.44464,-0.83854 -7.38452,-0.73634 -9.44138,0.19533 -2.13478,0.96695 -3.58593,2.15252 -4.55119,3.71826 -0.897,1.45501 -1.91475,5.0716 -1.6363,5.81463 0.15154,0.40437 1.8131,0.46426 10.82098,0.39005 l 10.64195,-0.0877 z m 62.9473,23.83789 c -6.20888,-0.92619 -9.97786,-4.6754 -10.37875,-10.32433 -0.23145,-3.26127 0.53966,-5.61134 2.55837,-7.79702 3.45892,-3.74498 8.17027,-4.70954 20.25597,-4.14702 l 3.57155,0.16623 -0.0705,-2.23607 c -0.10762,-3.41169 -1.63966,-5.88185 -4.37325,-7.05111 -2.64191,-1.13005 -9.36977,-1.21453 -14.8535,-0.18651 -0.97033,0.1819 -2.24599,0.33073 -2.83481,0.33073 -1.25549,0 -1.50675,-0.5929 -1.3467,-3.17788 0.12881,-2.08038 0.50248,-2.27879 5.57354,-2.95949 13.35248,-1.79233 21.227,0.89134 23.64495,8.05831 0.72021,2.13474 0.75402,2.65985 0.75402,11.71039 v 9.47543 l -0.84821,1.85196 c -1.50205,3.27954 -4.5604,5.22855 -9.62312,6.13258 -2.8864,0.51542 -9.07497,0.59454 -12.02953,0.1538 z m 12.78461,-6.14114 c 2.578,-1.29154 3.18222,-2.49969 3.33276,-6.66387 0.0969,-2.68001 0.024,-3.42133 -0.36909,-3.75541 -0.32635,-0.27734 -2.33017,-0.48395 -6.00473,-0.61912 -5.93475,-0.21833 -8.61436,0.0955 -10.86835,1.27301 -3.73047,1.94878 -3.58125,7.87993 0.24502,9.73915 1.92494,0.93535 3.71808,1.16789 7.91802,1.02683 3.51274,-0.11798 4.23601,-0.24393 5.74637,-1.00059 z m -209.447362,5.35571 c -0.434139,-0.32697 -0.482626,-3.35133 -0.40838,-25.4726 l 0.08425,-25.10158 2.710128,-0.0971 c 1.718792,-0.0616 2.876768,0.0445 3.165689,0.29006 0.638697,0.54278 0.687661,50.12264 0.0497,50.32782 -1.094303,0.35196 -5.153567,0.39064 -5.601389,0.0534 z m 47.404712,0.12785 -2.597487,-0.1664 -0.162343,-12.64383 -0.162343,-12.64384 -0.825318,-1.65243 c -1.644695,-3.29296 -5.085534,-4.70291 -10.69959,-4.38437 -3.98761,0.22625 -6.085334,0.90637 -7.67843,2.48949 -2.134862,2.12149 -2.184182,2.467 -2.288898,16.03484 -0.05151,6.67436 -0.163416,12.32222 -0.248674,12.55079 -0.107928,0.28935 -1.030722,0.41559 -3.037887,0.41559 h -2.882871 l -0.159604,-5.56889 c -0.08778,-3.0629 -0.07353,-9.3092 0.03168,-13.88068 0.189445,-8.23192 0.199954,-8.32986 1.093699,-10.19346 2.498216,-5.20916 7.659614,-7.60112 16.373426,-7.58798 8.54522,0.0129 13.23897,2.31903 15.71052,7.71893 l 1.10567,2.41567 0.0981,13.36101 c 0.11337,15.44375 0.4984,14.00256 -3.66962,13.73556 z m 182.8794,0.0973 c -0.68959,-0.17742 -0.62476,1.31252 -0.61587,-14.15462 0.008,-14.16404 0.10065,-15.00378 1.96802,-17.86657 1.16396,-1.78442 3.5171,-3.4813 6.0952,-4.39532 1.46165,-0.51821 2.98591,-0.70085 6.75766,-0.80972 6.02472,-0.1739 6.4502,-0.0185 6.58951,2.40733 0.0527,0.91738 -0.0357,2.03196 -0.19643,2.47683 -0.29005,0.8029 -0.32548,0.80895 -4.80373,0.81991 -3.62223,0.009 -4.76753,0.12858 -5.81027,0.6073 -1.76818,0.81176 -3.3497,2.4514 -3.73525,3.87251 -0.18306,0.67475 -0.3226,6.50711 -0.32649,13.64607 -0.004,6.85722 -0.11412,12.63193 -0.24532,12.83269 -0.24798,0.37945 -4.68188,0.81963 -5.67703,0.56359 z m -168.93332,-0.87315 c -0.10458,-0.42665 -0.1362,-6.37373 -0.0703,-13.21574 0.13208,-13.70915 0.20018,-14.23712 2.2439,-17.39656 1.38187,-2.13627 3.47669,-3.63605 6.52049,-4.66832 4.80048,-1.62804 12.47756,-1.66826 17.00507,-0.0891 4.16295,1.45201 6.4497,3.59938 7.99187,7.50475 0.72877,1.84553 0.7411,2.09789 0.7411,15.17559 v 13.29885 h -3.08452 -3.08452 l -0.16234,-12.6339 c -0.15862,-12.34374 -0.1795,-12.66957 -0.90923,-14.18645 -1.45847,-3.0317 -4.78554,-4.59818 -9.76612,-4.59818 -5.47145,0 -8.46079,1.36267 -9.9914,4.55453 l -0.92487,1.92866 -0.0643,12.0997 c -0.0353,6.65483 -0.14035,12.30269 -0.23332,12.55079 -0.12503,0.33363 -0.93098,0.45109 -3.09523,0.45109 -2.79469,0 -2.93472,-0.0349 -3.11631,-0.77572 z m 84.60209,0.19389 c 0.003,-0.32 1.10394,-2.00313 2.4459,-3.7403 1.34196,-1.73716 4.23709,-5.47746 6.43362,-8.31178 2.19653,-2.83432 4.10306,-5.34585 4.23674,-5.58118 0.19928,-0.35081 -6.54727,-9.29797 -12.05532,-15.98756 -0.39538,-0.48019 -0.72412,-1.13995 -0.73054,-1.46614 -0.0106,-0.53874 0.30747,-0.58443 3.47163,-0.49871 l 3.48331,0.0944 2.68966,3.49095 c 1.47932,1.92002 3.64061,4.72524 4.80287,6.23383 1.16226,1.50859 2.29283,2.74289 2.51238,2.74288 0.43428,-1e-5 0.39377,0.0493 5.7373,-6.98189 2.01505,-2.65145 3.89439,-5.00784 4.17631,-5.23642 0.33124,-0.26855 1.6394,-0.41559 3.6974,-0.41559 2.72676,0 3.18481,0.0779 3.18481,0.54167 0,0.29792 -2.84912,4.18552 -6.33138,8.6391 -3.48226,4.45358 -6.32854,8.28676 -6.32506,8.51817 0.003,0.23141 2.99261,4.23585 6.64252,8.89876 3.64992,4.66291 6.64231,8.73984 6.64975,9.05984 0.012,0.51764 -0.35823,0.58183 -3.35622,0.58183 h -3.36977 l -1.43208,-1.74547 c -0.78764,-0.96002 -3.10252,-3.95226 -5.14418,-6.64943 -2.04165,-2.69717 -3.91923,-4.90395 -4.1724,-4.90395 -0.25316,0 -0.62251,0.21173 -0.82078,0.47051 -0.19826,0.25878 -2.47905,3.24847 -5.06843,6.64375 l -4.70794,6.17325 -3.32803,0.006 c -2.95746,0.005 -3.32737,-0.0591 -3.32207,-0.57616 z M -69.690794,133.6883 c -2.413572,-0.85365 -3.967006,-2.23612 -5.099181,-4.53798 -0.805327,-1.63733 -0.974058,-2.38353 -0.974058,-4.30768 0,-1.98833 0.146706,-2.59363 1.007266,-4.15589 2.332098,-4.23369 7.341839,-6.02289 11.674127,-4.16934 1.475558,0.63131 3.63656,2.7185 4.465411,4.3129 0.561005,1.07916 0.703923,1.9238 0.707031,4.17857 0.0034,2.48801 -0.102855,3.01195 -0.888669,4.38076 -1.131613,1.97116 -2.856552,3.43116 -5.045134,4.27024 -2.113739,0.81038 -3.615269,0.81768 -5.846793,0.0284 z"
           id="path9" /></g></g></g></svg>
